<svg xmlns="http://www.w3.org/2000/svg" viewBox="0 0 130.49 30.27"><defs><style>.cls-1{fill:#35f;}.cls-2{fill:#f2f2f2;}</style></defs><g id="Layer_2" data-name="Layer 2"><g id="Board"><path class="cls-1" d="M12.22,16.27A7.25,7.25,0,0,1,19.45,23a.52.52,0,0,0,.51.5H23.9a.53.53,0,0,0,.53-.55A12.22,12.22,0,0,0,0,23a.54.54,0,0,0,.53.55H4.48A.53.53,0,0,0,5,23,7.24,7.24,0,0,1,12.22,16.27Z"/><rect class="cls-1" y="2.6" width="24.44" height="4.91" rx="1.06"/><path class="cls-2" d="M50.16,9A8.08,8.08,0,0,0,38.45,9a8.61,8.61,0,0,0-2.34,6.16V30.27h3.78V22.36a10.36,10.36,0,0,0,1.4.81,6.77,6.77,0,0,0,3,.64,7.83,7.83,0,0,0,5.87-2.49,8.66,8.66,0,0,0,2.36-6.18A8.58,8.58,0,0,0,50.16,9ZM39.89,15.13A5.15,5.15,0,0,1,41.2,11.6a4,4,0,0,1,6.1,0,4.88,4.88,0,0,1,1.36,3.55,4.87,4.87,0,0,1-1.36,3.54,4.09,4.09,0,0,1-4.79,1,6.59,6.59,0,0,1-1.65-1.28h0a3.42,3.42,0,0,1-1-2.38Z"/><path class="cls-2" d="M56.89,4.44a2.15,2.15,0,0,0,1.57-.64,2.16,2.16,0,0,0,.65-1.58A2.23,2.23,0,0,0,55.31.64a2.2,2.2,0,0,0-.65,1.58,2.2,2.2,0,0,0,2.23,2.22Z"/><rect class="cls-2" x="54.99" y="6.75" width="3.79" height="16.76"/><rect class="cls-2" x="74.35" width="3.79" height="23.52"/><path class="cls-2" d="M94.3,9A8.09,8.09,0,0,0,82.6,9a8.7,8.7,0,0,0-2.34,6.17,8.66,8.66,0,0,0,2.36,6.18,7.8,7.8,0,0,0,5.84,2.49,6.93,6.93,0,0,0,3-.62,10.89,10.89,0,0,0,1.38-.82v1.15h3.79V15.14A8.63,8.63,0,0,0,94.3,9Zm-1.42,7a3.59,3.59,0,0,1-1,2.46h0a5.68,5.68,0,0,1-1.64,1.26,4.05,4.05,0,0,1-4.79-1,4.87,4.87,0,0,1-1.36-3.54,4.88,4.88,0,0,1,1.36-3.55,4,4,0,0,1,3-1.4,3.89,3.89,0,0,1,3.12,1.4,5.19,5.19,0,0,1,1.3,3.55Z"/><path class="cls-2" d="M112.85,9A7.84,7.84,0,0,0,107,6.46a7,7,0,0,0-3,.62,11.53,11.53,0,0,0-1.37.82V0H98.79V15.14a8.66,8.66,0,0,0,2.36,6.18,8.13,8.13,0,0,0,11.71,0,8.62,8.62,0,0,0,2.36-6.18A8.62,8.62,0,0,0,112.85,9Zm-10.27,5.31a3.63,3.63,0,0,1,1-2.46h0a6,6,0,0,1,1.64-1.26,4.08,4.08,0,0,1,1.8-.37,4,4,0,0,1,3,1.4,4.92,4.92,0,0,1,1.36,3.55A4.91,4.91,0,0,1,110,18.68a4,4,0,0,1-3,1.41,3.93,3.93,0,0,1-3.12-1.41,5.17,5.17,0,0,1-1.29-3.54Z"/><path class="cls-2" d="M127.1,13.93l-.16,0c-1.59-.42-3.19-.86-4.76-1.3s-1.46-.93-1.46-1.1a.8.8,0,0,1,.26-.7,1.29,1.29,0,0,1,.86-.3h7.57V6.75h-7.66a4.8,4.8,0,0,0-3.6,1.39,4.68,4.68,0,0,0-1.33,3.37c0,1.42.59,3.34,3.41,4.42l.13,0L125,17.21c1.59.55,1.59,1.23,1.59,1.53a.75.75,0,0,1-.32.68,2.92,2.92,0,0,1-1.79.37h-7.65v3.73h7.38a7.44,7.44,0,0,0,4.46-1.16,4.43,4.43,0,0,0,1.83-3.8A4.81,4.81,0,0,0,127.1,13.93Z"/><rect class="cls-2" x="62.7" y="12.06" width="7.44" height="3.72"/></g></g></svg>