<svg width="5269" height="1223" viewBox="0 0 5269 1223" fill="none" xmlns="http://www.w3.org/2000/svg">
<g clip-path="url(#clip0_32_4)">
<path d="M493.426 657.09C567.423 657.103 638.669 685.133 692.832 735.54C746.995 785.946 780.056 854.989 785.363 928.78C785.568 934.137 787.816 939.213 791.645 942.966C795.474 946.72 800.595 948.866 805.956 948.965H965.048C967.927 948.967 970.778 948.388 973.428 947.263C976.079 946.137 978.475 944.489 980.473 942.416C982.471 940.342 984.03 937.887 985.057 935.198C986.084 932.508 986.557 929.639 986.448 926.762C982.522 798.422 928.701 676.67 836.42 587.37C744.139 498.071 620.67 448.262 492.243 448.525C363.816 448.788 240.552 499.102 148.638 588.778C56.7231 678.454 3.40122 800.425 -9.86484e-05 928.78C-0.0536181 931.643 0.457524 934.488 1.50413 937.154C2.55074 939.819 4.11231 942.252 6.09964 944.314C8.08696 946.376 10.4611 948.026 13.0865 949.171C15.7119 950.315 18.537 950.931 21.4005 950.983H180.896C183.741 950.932 186.548 950.313 189.151 949.164C191.755 948.015 194.103 946.358 196.058 944.29C198.013 942.223 199.536 939.786 200.538 937.123C201.54 934.46 202.001 931.623 201.893 928.78C207.102 855.025 240.078 785.984 294.175 735.569C348.273 685.153 419.471 657.111 493.426 657.09Z" fill="#3355FF"/>
<path d="M944.051 105.232H42.8013C19.1628 105.232 0 124.391 0 148.024V260.656C0 284.29 19.1628 303.449 42.8013 303.449H944.051C967.689 303.449 986.852 284.29 986.852 260.656V148.024C986.852 124.391 967.689 105.232 944.051 105.232Z" fill="#3355FF"/>
<path d="M2025.39 363.6C1994.91 331.561 1958.24 306.051 1917.6 288.62C1876.96 271.189 1833.2 262.2 1788.97 262.2C1744.75 262.2 1700.99 271.189 1660.35 288.62C1619.7 306.051 1583.03 331.561 1552.56 363.6C1489.32 430.687 1455.34 520.139 1458.07 612.279V1222.27H1610.7V902.943C1628.66 915.299 1647.56 926.232 1667.23 935.643C1705.1 953.408 1746.54 962.247 1788.37 961.48C1832.72 962.285 1876.74 953.752 1917.58 936.433C1958.41 919.115 1995.14 893.4 2025.39 860.958C2088.92 793.68 2123.19 703.965 2120.68 611.472C2121.89 565.92 2114.09 520.577 2097.74 478.043C2081.39 435.509 2056.8 396.618 2025.39 363.6ZM1610.7 611.068C1609.71 558.594 1628.61 507.686 1663.6 468.562C1678.76 450.696 1697.63 436.344 1718.9 426.5C1740.16 416.656 1763.32 411.558 1786.75 411.558C1810.19 411.558 1833.34 416.656 1854.61 426.5C1875.87 436.344 1894.74 450.696 1909.91 468.562C1928.18 487.562 1942.46 510.035 1951.9 534.653C1961.33 559.27 1965.72 585.529 1964.82 611.875C1965.69 638.157 1961.28 664.347 1951.85 688.894C1942.42 713.441 1928.15 735.847 1909.91 754.785C1886.33 781.461 1854.76 799.803 1819.9 807.078C1785.05 814.353 1748.78 810.171 1716.49 795.155C1691.68 781.581 1669.19 764.137 1649.87 743.482C1624.37 717.958 1609.88 683.472 1609.49 647.401L1610.7 611.068Z" fill="black"/>
<path d="M2297.14 179.513C2308.9 179.727 2320.59 177.547 2331.49 173.106C2342.39 168.664 2352.27 162.054 2360.53 153.676C2369.01 145.387 2375.72 135.456 2380.23 124.488C2384.74 113.521 2386.97 101.749 2386.78 89.8914C2386.75 72.132 2381.47 54.7779 2371.59 40.0129C2361.72 25.2479 2347.71 13.7317 2331.3 6.91334C2314.9 0.0950351 2296.85 -1.72074 2279.42 1.69452C2261.99 5.10978 2245.95 13.6035 2233.34 26.1068C2224.93 34.4516 2218.28 44.3937 2213.77 55.3479C2209.26 66.302 2206.99 78.0469 2207.09 89.8914C2206.98 101.725 2209.24 113.461 2213.73 124.41C2218.23 135.359 2224.86 145.3 2233.25 153.649C2241.64 161.998 2251.61 168.587 2262.58 173.029C2273.55 177.47 2285.3 179.675 2297.14 179.513Z" fill="black"/>
<path d="M2373.45 272.768H2220.42V949.369H2373.45V272.768Z" fill="black"/>
<path d="M3155.18 0.27002H3002.15V949.773H3155.18V0.27002Z" fill="black"/>
<path d="M3807.7 363.6C3777.2 331.676 3740.54 306.266 3699.94 288.905C3659.34 271.545 3615.64 262.594 3571.48 262.594C3527.33 262.594 3483.63 271.545 3443.03 288.905C3402.43 306.266 3365.77 331.676 3335.27 363.6C3272.28 431.001 3238.34 520.472 3240.78 612.683C3238.27 705.176 3272.54 794.892 3336.08 862.17C3366.14 894.518 3402.67 920.184 3443.29 937.502C3483.92 954.82 3527.73 963.402 3571.89 962.691C3613.63 963.487 3655.02 954.935 3693.02 937.661C3712.39 928.012 3731.01 916.948 3748.75 904.558V950.984H3901.78V611.472C3904.32 519.681 3870.51 430.599 3807.7 363.6ZM3750.36 646.19C3750.09 683.236 3735.64 718.773 3709.98 745.5C3691.21 766.364 3668.76 783.605 3643.76 796.366C3611.53 811.648 3575.19 815.975 3540.27 808.687C3505.35 801.398 3473.77 782.895 3450.35 755.996C3432.1 737.058 3417.84 714.652 3408.41 690.105C3398.97 665.558 3394.56 639.368 3395.43 613.087C3394.53 586.74 3398.93 560.481 3408.36 535.864C3417.79 511.247 3432.07 488.773 3450.35 469.773C3465.33 452.254 3483.9 438.145 3504.79 428.397C3525.69 418.648 3548.43 413.485 3571.48 413.255C3595.4 412.458 3619.19 417.136 3641.02 426.931C3662.85 436.726 3682.16 451.38 3697.47 469.773C3732.36 509.247 3751.1 560.416 3749.96 613.087L3750.36 646.19Z" fill="black"/>
<path d="M4556.72 363.6C4526.73 330.915 4490.21 304.896 4449.51 287.231C4408.82 269.566 4364.87 260.65 4320.51 261.06C4278.78 260.359 4237.41 268.907 4199.37 286.09C4180.19 295.833 4161.7 306.894 4144.05 319.193V0.27002H3989V611.472C3986.49 703.965 4020.76 793.681 4084.29 860.958C4114.92 892.741 4151.64 918.022 4192.26 935.289C4232.88 952.557 4276.57 961.457 4320.71 961.457C4364.85 961.457 4408.54 952.557 4449.16 935.289C4489.78 918.022 4526.5 892.741 4557.13 860.958C4588.66 827.695 4613.31 788.532 4629.66 745.718C4646.02 702.904 4653.75 657.282 4652.42 611.472C4654.57 519.446 4620.16 430.318 4556.72 363.6ZM4142.03 577.965C4142.46 540.951 4156.89 505.471 4182.41 478.655C4201.37 457.995 4223.78 440.784 4248.63 427.788C4271.41 417.348 4296.27 412.24 4321.31 412.851C4344.37 413.081 4367.11 418.244 4388.01 427.993C4408.9 437.742 4427.46 451.85 4442.45 469.369C4460.65 488.422 4474.88 510.905 4484.31 535.509C4493.74 560.114 4498.18 586.347 4497.36 612.683C4497.88 638.808 4493.22 664.777 4483.65 689.095C4474.09 713.413 4459.81 735.601 4441.64 754.382C4426.69 771.975 4408.15 786.159 4387.25 795.978C4366.35 805.798 4343.59 811.023 4320.51 811.303C4296.57 811.932 4272.81 807.137 4250.99 797.28C4229.17 787.422 4209.87 772.757 4194.53 754.382C4159.8 714.991 4141.2 663.963 4142.44 611.472L4142.03 577.965Z" fill="black"/>
<path d="M5132.12 562.624H5125.66C5061.45 545.669 4996.85 527.906 4933.45 510.143C4870.06 492.38 4874.5 472.599 4874.5 465.736C4873.82 460.527 4874.42 455.231 4876.25 450.307C4878.08 445.383 4881.08 440.979 4885 437.477C4894.72 429.353 4907.06 425.047 4919.72 425.366H5225.39V272.768H4916.09C4889.3 271.556 4862.54 275.917 4837.52 285.576C4812.5 295.235 4789.76 309.982 4770.73 328.882C4753.18 346.852 4739.4 368.139 4730.17 391.499C4720.95 414.859 4716.48 439.822 4717.02 464.929C4717.02 522.254 4740.85 599.765 4854.72 643.364H4859.96L5047.32 695.038C5111.52 717.241 5111.52 744.693 5111.52 756.804C5111.97 762.112 5111.02 767.445 5108.75 772.264C5106.48 777.084 5102.98 781.221 5098.6 784.255C5076.73 796.839 5051.39 802.075 5026.32 799.192H4717.43V949.773H5015.42C5078.9 953.612 5141.95 937.215 5195.51 902.943C5219.61 885.528 5238.99 862.381 5251.89 835.596C5264.79 808.811 5270.81 779.233 5269.4 749.537C5269.67 707.762 5256.46 667.013 5231.73 633.341C5207 599.669 5172.07 574.869 5132.12 562.624Z" fill="black"/>
<path d="M2832.15 487.132H2531.74V637.309H2832.15V487.132Z" fill="black"/>
</g>
<defs>
<clipPath id="clip0_32_4">
<rect width="5269" height="1222" fill="white" transform="translate(0 0.27002)"/>
</clipPath>
</defs>
</svg>
